<svg width="400" height="500" viewBox="0 0 400 500" fill="none" xmlns="http://www.w3.org/2000/svg">
  <!-- Background documents -->
  <rect x="16" y="16" width="320" height="400" rx="12" fill="white" stroke="#e2e8f0" stroke-width="1"/>
  <rect x="8" y="8" width="320" height="400" rx="12" fill="white" stroke="#e2e8f0" stroke-width="1"/>
  
  <!-- Main document -->
  <rect x="0" y="0" width="320" height="400" rx="12" fill="white" stroke="#cbd5e1" stroke-width="1.5"/>
  
  <!-- Header -->
  <rect x="24" y="24" width="80" height="16" rx="2" fill="#1e293b"/>
  <text x="24" y="52" font-family="Inter, sans-serif" font-size="10" fill="#64748b" font-weight="500">EVIDENCE PACK</text>
  
  <!-- Date/ref -->
  <rect x="240" y="24" width="56" height="12" rx="2" fill="#e2e8f0"/>
  <rect x="252" y="40" width="44" height="12" rx="2" fill="#e2e8f0"/>
  
  <!-- Divider -->
  <line x1="24" y1="72" x2="296" y2="72" stroke="#e2e8f0" stroke-width="1"/>
  
  <!-- Table header -->
  <rect x="24" y="92" width="48" height="12" rx="2" fill="#cbd5e1"/>
  <rect x="96" y="92" width="64" height="12" rx="2" fill="#cbd5e1"/>
  <rect x="184" y="92" width="52" height="12" rx="2" fill="#cbd5e1"/>
  <rect x="260" y="92" width="36" height="12" rx="2" fill="#cbd5e1"/>
  
  <!-- Data rows -->
  <!-- Row 1 - Verified -->
  <circle cx="30" cy="125" r="4" fill="#10b981"/>
  <rect x="44" y="120" width="80" height="10" rx="2" fill="#f1f5f9"/>
  <rect x="140" y="120" width="60" height="10" rx="2" fill="#f1f5f9"/>
  <rect x="216" y="120" width="44" height="10" rx="2" fill="#f1f5f9"/>
  <rect x="276" y="120" width="20" height="10" rx="2" fill="#f1f5f9"/>
  
  <!-- Row 2 - Verified -->
  <circle cx="30" cy="145" r="4" fill="#10b981"/>
  <rect x="44" y="140" width="76" height="10" rx="2" fill="#f1f5f9"/>
  <rect x="140" y="140" width="68" height="10" rx="2" fill="#f1f5f9"/>
  <rect x="216" y="140" width="48" height="10" rx="2" fill="#f1f5f9"/>
  <rect x="276" y="140" width="20" height="10" rx="2" fill="#f1f5f9"/>
  
  <!-- Row 3 - Flagged -->
  <circle cx="30" cy="165" r="4" fill="#f59e0b"/>
  <rect x="44" y="160" width="72" height="10" rx="2" fill="#f1f5f9"/>
  <rect x="140" y="160" width="56" height="10" rx="2" fill="#f1f5f9"/>
  <rect x="216" y="160" width="40" height="10" rx="2" fill="#f1f5f9"/>
  <rect x="276" y="160" width="20" height="10" rx="2" fill="#f1f5f9"/>
  
  <!-- Row 4 - Flagged -->
  <circle cx="30" cy="185" r="4" fill="#f59e0b"/>
  <rect x="44" y="180" width="84" height="10" rx="2" fill="#f1f5f9"/>
  <rect x="140" y="180" width="52" height="10" rx="2" fill="#f1f5f9"/>
  <rect x="216" y="180" width="36" height="10" rx="2" fill="#f1f5f9"/>
  <rect x="276" y="180" width="20" height="10" rx="2" fill="#f1f5f9"/>
  
  <!-- Row 5 - Verified -->
  <circle cx="30" cy="205" r="4" fill="#10b981"/>
  <rect x="44" y="200" width="68" height="10" rx="2" fill="#f1f5f9"/>
  <rect x="140" y="200" width="72" height="10" rx="2" fill="#f1f5f9"/>
  <rect x="216" y="200" width="52" height="10" rx="2" fill="#f1f5f9"/>
  <rect x="276" y="200" width="20" height="10" rx="2" fill="#f1f5f9"/>
  
  <!-- Summary section -->
  <rect x="24" y="240" width="272" height="80" rx="8" fill="#f8fafc" stroke="#e2e8f0"/>
  <text x="32" y="256" font-family="Inter, sans-serif" font-size="10" fill="#1e293b" font-weight="600">VERIFICATION SUMMARY</text>
  
  <!-- Summary stats -->
  <circle cx="36" cy="276" r="3" fill="#10b981"/>
  <text x="48" y="280" font-family="Inter, sans-serif" font-size="9" fill="#475569">3 Verified</text>
  
  <circle cx="36" cy="292" r="3" fill="#f59e0b"/>
  <text x="48" y="296" font-family="Inter, sans-serif" font-size="9" fill="#475569">2 Flagged for review</text>
  
  <circle cx="36" cy="308" r="3" fill="#64748b"/>
  <text x="48" y="312" font-family="Inter, sans-serif" font-size="9" fill="#475569">0 Unable to verify</text>
  
  <!-- Confidence indicator -->
  <text x="180" y="280" font-family="Inter, sans-serif" font-size="9" fill="#475569">Overall confidence:</text>
  <text x="180" y="296" font-family="Inter, sans-serif" font-size="14" fill="#10b981" font-weight="700">87%</text>
  
  <!-- Footer -->
  <line x1="24" y1="350" x2="296" y2="350" stroke="#e2e8f0" stroke-width="1"/>
  <rect x="24" y="364" width="60" height="8" rx="2" fill="#e2e8f0"/>
  <text x="24" y="384" font-family="Inter, sans-serif" font-size="8" fill="#64748b">Generated by Nuvel Verify Graph</text>
  
  <!-- Quality indicator -->
  <circle cx="276" cy="368" r="3" fill="#10b981"/>
  <text x="248" y="372" font-family="Inter, sans-serif" font-size="8" fill="#64748b">QA Passed</text>
</svg>